<?xml version="1.0" standalone="no"?>
<!DOCTYPE svg PUBLIC "-//W3C//DTD SVG 20010904//EN"
 "http://www.w3.org/TR/2001/REC-SVG-20010904/DTD/svg10.dtd">
<svg version="1.0" xmlns="http://www.w3.org/2000/svg"
 width="980.000000pt" height="200.000000pt" viewBox="0 0 980.000000 200.000000"
 preserveAspectRatio="xMidYMid meet">
<metadata>
Created by potrace 1.15, written by Peter Selinger 2001-2017
</metadata>
<g transform="translate(0.000000,200.000000) scale(0.100000,-0.100000)"
fill="#000000" stroke="none">
<path d="M1076 1992 c-3 -5 -29 -74 -57 -153 -28 -79 -66 -186 -85 -237 l-34
-93 44 -122 c25 -67 61 -165 81 -217 20 -52 41 -106 45 -120 5 -14 25 -68 45
-120 20 -52 41 -106 45 -120 5 -14 23 -63 40 -110 18 -47 38 -103 45 -125 8
-22 32 -87 54 -145 22 -58 41 -111 41 -117 0 -10 53 -13 230 -13 l230 0 -21
52 c-12 29 -25 67 -29 83 -4 17 -14 46 -23 65 -9 19 -44 114 -78 210 -34 96
-82 231 -106 300 -25 69 -71 199 -103 290 -32 91 -101 284 -153 430 l-94 265
-56 3 c-30 2 -58 -1 -61 -6z"/>
<path d="M3045 1598 c-4 -13 -29 -72 -55 -133 -26 -60 -78 -182 -115 -270 -37
-88 -86 -205 -110 -260 -23 -55 -73 -172 -110 -260 -37 -88 -87 -205 -111
-259 -24 -55 -44 -103 -44 -108 0 -4 22 -8 48 -8 l48 0 30 73 c17 39 55 129
84 199 l53 128 314 0 314 0 23 -53 c13 -28 43 -99 66 -157 24 -58 51 -124 61
-148 l18 -42 57 0 c41 0 55 3 51 13 -3 6 -23 53 -45 102 -22 50 -77 178 -122
285 -45 107 -95 224 -110 260 -15 36 -57 135 -93 220 -36 85 -93 218 -125 295
-57 133 -61 140 -90 143 -24 3 -32 -1 -37 -20z m94 -272 c22 -55 78 -195 125
-311 48 -115 86 -213 86 -217 0 -5 -124 -8 -276 -8 -217 0 -275 3 -271 13 3 6
31 75 62 152 87 215 161 396 177 435 9 19 18 44 22 55 7 19 8 19 21 1 8 -10
32 -64 54 -120z"/>
<path d="M6785 1555 c-49 -49 -16 -125 55 -125 44 0 80 35 80 77 0 34 -42 73
-80 73 -19 0 -40 -9 -55 -25z"/>
<path d="M4204 1190 c-68 -14 -138 -55 -192 -115 l-52 -57 0 86 0 86 -45 0
-45 0 0 -595 0 -595 45 0 45 0 0 231 0 231 58 -59 c66 -69 120 -97 215 -113
85 -15 178 -1 262 40 188 91 276 329 210 566 -61 215 -272 339 -501 294z m201
-89 c146 -51 234 -204 222 -385 -7 -116 -37 -188 -106 -256 -75 -74 -131 -94
-249 -88 -73 3 -96 9 -141 33 -93 51 -156 156 -175 293 -15 105 38 263 112
335 82 80 222 108 337 68z"/>
<path d="M5324 1190 c-65 -14 -135 -53 -186 -106 -27 -27 -48 -52 -48 -57 0
-4 -4 -5 -10 -2 -5 3 -10 42 -10 86 l0 80 -42 -3 -43 -3 -3 -592 -2 -593 45 0
45 0 0 230 c0 127 3 230 6 230 3 0 26 -23 51 -50 59 -66 114 -97 204 -116 205
-43 407 64 479 253 28 72 38 231 21 315 -28 133 -114 242 -234 298 -69 33
-197 47 -273 30z m231 -102 c98 -51 154 -131 182 -262 14 -66 15 -88 5 -149
-24 -140 -85 -230 -187 -279 -51 -24 -72 -28 -145 -28 -73 0 -94 4 -146 29
-74 35 -134 102 -166 185 -34 90 -32 236 4 324 44 102 100 159 191 193 75 28
193 22 262 -13z"/>
<path d="M6387 1186 c-56 -21 -110 -70 -128 -118 -19 -48 -29 -31 -29 47 l0
75 -45 0 -45 0 0 -445 0 -445 45 0 45 0 0 258 c0 142 5 285 11 317 31 169 113
245 250 232 l59 -5 0 43 c0 40 -2 43 -31 49 -48 9 -90 7 -132 -8z"/>
<path d="M7398 1191 c-180 -38 -250 -257 -120 -378 34 -31 123 -77 181 -93 74
-20 171 -72 197 -105 35 -46 40 -85 16 -138 -14 -31 -34 -55 -63 -74 -39 -26
-50 -28 -133 -28 -105 0 -152 18 -223 87 l-42 41 -30 -25 -30 -26 30 -40 c104
-141 373 -171 507 -56 108 92 119 245 24 336 -43 41 -91 67 -187 103 -173 63
-225 105 -225 180 0 60 14 87 63 118 35 23 52 27 112 27 77 0 128 -18 183 -65
l33 -28 24 23 c14 13 25 28 25 34 -1 15 -78 72 -123 91 -44 18 -167 27 -219
16z"/>
<path d="M8320 1187 c-131 -31 -229 -117 -290 -257 -19 -44 -25 -77 -28 -166
-6 -163 25 -259 115 -355 61 -65 114 -94 208 -114 86 -18 155 -15 260 12 63
15 150 60 178 90 15 17 14 21 -4 51 l-21 32 -32 -25 c-18 -13 -59 -37 -92 -52
-54 -25 -69 -28 -179 -28 -97 0 -126 3 -153 18 -96 52 -167 159 -179 267 l-6
60 362 0 361 0 0 73 c-1 123 -56 244 -147 321 -84 70 -232 101 -353 73z m227
-95 c23 -12 58 -36 77 -53 48 -41 96 -140 96 -196 l0 -43 -311 0 -311 0 7 47
c18 122 106 225 225 264 46 15 171 4 217 -19z"/>
<path d="M9397 1186 c-61 -17 -122 -59 -164 -114 l-32 -42 -3 77 -3 78 -42 3
-43 3 0 -446 0 -446 43 3 42 3 6 280 c3 184 10 294 18 320 46 144 150 222 284
213 83 -5 135 -37 168 -105 24 -47 24 -54 27 -380 l3 -333 50 0 51 0 -5 328
c-3 261 -7 336 -20 373 -32 95 -59 130 -132 168 -53 27 -182 36 -248 17z"/>
<path d="M6795 1178 c-3 -7 -4 -206 -2 -443 l2 -430 48 -3 47 -3 0 445 0 446
-45 0 c-27 0 -47 -5 -50 -12z"/>
</g>
</svg>
